<?xml version="1.0" encoding="UTF-8" standalone="no"?>
<!DOCTYPE svg PUBLIC "-//W3C//DTD SVG 1.1//EN"
 "http://www.w3.org/Graphics/SVG/1.1/DTD/svg11.dtd">
<!-- Generated by graphviz version 2.46.0 (20210119.1425)
 -->
<!-- Title: dependencies Pages: 1 -->
<svg width="5780pt" height="290pt"
 viewBox="0.00 0.00 5780.00 290.00" xmlns="http://www.w3.org/2000/svg" xmlns:xlink="http://www.w3.org/1999/xlink">
<g id="graph0" class="graph" transform="scale(1 1) rotate(0) translate(4 286)">
<title>dependencies</title>
<polygon fill="white" stroke="transparent" points="-4,4 -4,-286 5776,-286 5776,4 -4,4"/>
<text text-anchor="start" x="2865.01" y="-42.4" font-family="sans-serif" font-weight="bold" font-size="14.00">Legend</text>
<polygon fill="#ffffb3" stroke="transparent" points="2652,-10 2652,-30 2672,-30 2672,-10 2652,-10"/>
<text text-anchor="start" x="2675.63" y="-15.4" font-family="sans-serif" font-size="14.00"> &#160;Declarations</text>
<polygon fill="#8dd3c7" stroke="transparent" points="2765,-10 2765,-30 2785,-30 2785,-10 2765,-10"/>
<text text-anchor="start" x="2788.73" y="-15.4" font-family="sans-serif" font-size="14.00"> &#160;Module</text>
<polygon fill="#80b1d3" stroke="transparent" points="2851,-10 2851,-30 2871,-30 2871,-10 2851,-10"/>
<text text-anchor="start" x="2874.78" y="-15.4" font-family="sans-serif" font-size="14.00"> &#160;Bootstrap</text>
<polygon fill="#fdb462" stroke="transparent" points="2948,-10 2948,-30 2968,-30 2968,-10 2948,-10"/>
<text text-anchor="start" x="2971.67" y="-15.4" font-family="sans-serif" font-size="14.00"> &#160;Providers</text>
<polygon fill="#fb8072" stroke="transparent" points="3044,-10 3044,-30 3064,-30 3064,-10 3044,-10"/>
<text text-anchor="start" x="3067.73" y="-15.4" font-family="sans-serif" font-size="14.00"> &#160;Exports</text>
<g id="clust1" class="cluster">
<title>cluster_AppModule</title>
<polygon fill="none" stroke="black" stroke-dasharray="1,5" points="8,-70 8,-274 403,-274 403,-70 8,-70"/>
</g>
<g id="clust2" class="cluster">
<title>cluster_AppModule_declarations</title>
<polygon fill="none" stroke="black" points="16,-78 16,-130 138,-130 138,-78 16,-78"/>
</g>
<g id="clust4" class="cluster">
<title>cluster_AppModule_imports</title>
<polygon fill="none" stroke="black" points="146,-78 146,-130 395,-130 395,-78 146,-78"/>
</g>
<g id="clust6" class="cluster">
<title>cluster_AppModule_bootstrap</title>
<polygon fill="none" stroke="black" points="156,-214 156,-266 280,-266 280,-214 156,-214"/>
</g>
<g id="clust14" class="cluster">
<title>cluster_ClientsModule</title>
<polygon fill="none" stroke="black" stroke-dasharray="1,5" points="1567,-70 1567,-198 2305,-198 2305,-70 1567,-70"/>
</g>
<g id="clust15" class="cluster">
<title>cluster_ClientsModule_declarations</title>
<polygon fill="none" stroke="black" points="1743,-78 1743,-130 2297,-130 2297,-78 1743,-78"/>
</g>
<g id="clust19" class="cluster">
<title>cluster_ClientsModule_imports</title>
<polygon fill="none" stroke="black" points="1575,-78 1575,-130 1735,-130 1735,-78 1575,-78"/>
</g>
<g id="clust29" class="cluster">
<title>cluster_CoreModule</title>
<polygon fill="none" stroke="black" stroke-dasharray="1,5" points="411,-138 411,-206 1559,-206 1559,-138 411,-138"/>
</g>
<g id="clust30" class="cluster">
<title>cluster_CoreModule_declarations</title>
<polygon fill="none" stroke="black" points="1155,-146 1155,-198 1551,-198 1551,-146 1155,-146"/>
</g>
<g id="clust35" class="cluster">
<title>cluster_CoreModule_exports</title>
<polygon fill="none" stroke="black" points="419,-146 419,-198 1147,-198 1147,-146 419,-146"/>
</g>
<g id="clust38" class="cluster">
<title>cluster_IconsModule</title>
<polygon fill="none" stroke="black" stroke-dasharray="1,5" points="2313,-70 2313,-274 2954,-274 2954,-70 2313,-70"/>
</g>
<g id="clust39" class="cluster">
<title>cluster_IconsModule_declarations</title>
<polygon fill="none" stroke="black" points="2330,-78 2330,-130 2940,-130 2940,-78 2330,-78"/>
</g>
<g id="clust45" class="cluster">
<title>cluster_IconsModule_exports</title>
<polygon fill="none" stroke="black" points="2321,-214 2321,-266 2946,-266 2946,-214 2321,-214"/>
</g>
<g id="clust48" class="cluster">
<title>cluster_LoginModule</title>
<polygon fill="none" stroke="black" stroke-dasharray="1,5" points="2962,-70 2962,-198 3901,-198 3901,-70 2962,-70"/>
</g>
<g id="clust49" class="cluster">
<title>cluster_LoginModule_declarations</title>
<polygon fill="none" stroke="black" points="3132,-78 3132,-130 3893,-130 3893,-78 3132,-78"/>
</g>
<g id="clust54" class="cluster">
<title>cluster_LoginModule_imports</title>
<polygon fill="none" stroke="black" points="2970,-78 2970,-130 3124,-130 3124,-78 2970,-78"/>
</g>
<g id="clust64" class="cluster">
<title>cluster_OrdersModule</title>
<polygon fill="none" stroke="black" stroke-dasharray="1,5" points="3909,-70 3909,-198 4641,-198 4641,-70 3909,-70"/>
</g>
<g id="clust65" class="cluster">
<title>cluster_OrdersModule_declarations</title>
<polygon fill="none" stroke="black" points="4083,-78 4083,-130 4633,-130 4633,-78 4083,-78"/>
</g>
<g id="clust69" class="cluster">
<title>cluster_OrdersModule_imports</title>
<polygon fill="none" stroke="black" points="3917,-78 3917,-130 4075,-130 4075,-78 3917,-78"/>
</g>
<g id="clust79" class="cluster">
<title>cluster_PageNotFoundModule</title>
<polygon fill="none" stroke="black" stroke-dasharray="1,5" points="4649,-70 4649,-198 5059,-198 5059,-70 4649,-70"/>
</g>
<g id="clust80" class="cluster">
<title>cluster_PageNotFoundModule_declarations</title>
<polygon fill="none" stroke="black" points="4869,-78 4869,-130 5051,-130 5051,-78 4869,-78"/>
</g>
<g id="clust82" class="cluster">
<title>cluster_PageNotFoundModule_imports</title>
<polygon fill="none" stroke="black" points="4657,-78 4657,-130 4861,-130 4861,-78 4657,-78"/>
</g>
<g id="clust98" class="cluster">
<title>cluster_TemplatesModule</title>
<polygon fill="none" stroke="black" stroke-dasharray="1,5" points="5067,-70 5067,-274 5502,-274 5502,-70 5067,-70"/>
</g>
<g id="clust99" class="cluster">
<title>cluster_TemplatesModule_declarations</title>
<polygon fill="none" stroke="black" points="5079,-78 5079,-130 5491,-130 5491,-78 5079,-78"/>
</g>
<g id="clust103" class="cluster">
<title>cluster_TemplatesModule_exports</title>
<polygon fill="none" stroke="black" points="5075,-214 5075,-266 5494,-266 5494,-214 5075,-214"/>
</g>
<g id="clust106" class="cluster">
<title>cluster_UiModule</title>
<polygon fill="none" stroke="black" stroke-dasharray="1,5" points="5510,-70 5510,-274 5764,-274 5764,-70 5510,-70"/>
</g>
<g id="clust107" class="cluster">
<title>cluster_UiModule_declarations</title>
<polygon fill="none" stroke="black" points="5521,-78 5521,-130 5753,-130 5753,-78 5521,-78"/>
</g>
<g id="clust111" class="cluster">
<title>cluster_UiModule_exports</title>
<polygon fill="none" stroke="black" points="5518,-214 5518,-266 5756,-266 5756,-214 5518,-214"/>
</g>
<!-- AppComponent -->
<g id="node1" class="node">
<title>AppComponent</title>
<polygon fill="#ffffb3" stroke="black" points="129.94,-122 24.06,-122 24.06,-86 129.94,-86 129.94,-122"/>
<text text-anchor="middle" x="77" y="-99.8" font-family="Times,serif" font-size="14.00">AppComponent</text>
</g>
<!-- AppModule -->
<g id="node2" class="node">
<title>AppModule</title>
<polygon fill="#8dd3c7" stroke="black" points="259.66,-190 256.66,-194 235.66,-194 232.66,-190 176.34,-190 176.34,-154 259.66,-154 259.66,-190"/>
<text text-anchor="middle" x="218" y="-167.8" font-family="Times,serif" font-size="14.00">AppModule</text>
</g>
<!-- AppComponent&#45;&gt;AppModule -->
<g id="edge1" class="edge">
<title>AppComponent&#45;&gt;AppModule</title>
<path fill="none" stroke="black" d="M77,-122.22C77,-142.37 77,-172 77,-172 77,-172 166.08,-172 166.08,-172"/>
<polygon fill="black" stroke="black" points="166.08,-175.5 176.08,-172 166.08,-168.5 166.08,-175.5"/>
</g>
<!-- AppComponent  -->
<g id="node5" class="node">
<title>AppComponent </title>
<polygon fill="#80b1d3" stroke="black" points="272.44,-258 163.56,-258 163.56,-222 272.44,-222 272.44,-258"/>
<text text-anchor="middle" x="218" y="-235.8" font-family="Times,serif" font-size="14.00">AppComponent </text>
</g>
<!-- AppModule&#45;&gt;AppComponent  -->
<g id="edge4" class="edge">
<title>AppModule&#45;&gt;AppComponent </title>
<path fill="none" stroke="black" stroke-dasharray="1,5" d="M218,-190.22C218,-190.22 218,-211.73 218,-211.73"/>
<polygon fill="black" stroke="black" points="214.5,-211.73 218,-221.73 221.5,-211.73 214.5,-211.73"/>
</g>
<!-- AppRoutingModule -->
<g id="node3" class="node">
<title>AppRoutingModule</title>
<polygon fill="#8dd3c7" stroke="black" points="282.27,-122 279.27,-126 258.27,-126 255.27,-122 153.73,-122 153.73,-86 282.27,-86 282.27,-122"/>
<text text-anchor="middle" x="218" y="-99.8" font-family="Times,serif" font-size="14.00">AppRoutingModule</text>
</g>
<!-- AppRoutingModule&#45;&gt;AppModule -->
<g id="edge2" class="edge">
<title>AppRoutingModule&#45;&gt;AppModule</title>
<path fill="none" stroke="black" d="M218,-122.22C218,-122.22 218,-143.73 218,-143.73"/>
<polygon fill="black" stroke="black" points="214.5,-143.73 218,-153.73 221.5,-143.73 214.5,-143.73"/>
</g>
<!-- CoreModule -->
<g id="node4" class="node">
<title>CoreModule</title>
<polygon fill="#8dd3c7" stroke="black" points="387.26,-122 384.26,-126 363.26,-126 360.26,-122 300.74,-122 300.74,-86 387.26,-86 387.26,-122"/>
<text text-anchor="middle" x="344" y="-99.8" font-family="Times,serif" font-size="14.00">CoreModule</text>
</g>
<!-- CoreModule&#45;&gt;AppModule -->
<g id="edge3" class="edge">
<title>CoreModule&#45;&gt;AppModule</title>
<path fill="none" stroke="black" d="M344,-122.22C344,-142.37 344,-172 344,-172 344,-172 269.96,-172 269.96,-172"/>
<polygon fill="black" stroke="black" points="269.96,-168.5 259.96,-172 269.96,-175.5 269.96,-168.5"/>
</g>
<!-- FooterComponent  -->
<g id="node14" class="node">
<title>FooterComponent </title>
<polygon fill="#fb8072" stroke="black" points="1138.88,-190 1017.12,-190 1017.12,-154 1138.88,-154 1138.88,-190"/>
<text text-anchor="middle" x="1078" y="-167.8" font-family="Times,serif" font-size="14.00">FooterComponent </text>
</g>
<!-- CoreModule&#45;&gt;FooterComponent  -->
<g id="edge12" class="edge">
<title>CoreModule&#45;&gt;FooterComponent </title>
<path fill="none" stroke="black" stroke-dasharray="5,2" d="M387.45,-101C545.12,-101 1078,-101 1078,-101 1078,-101 1078,-143.72 1078,-143.72"/>
<polygon fill="black" stroke="black" points="1074.5,-143.72 1078,-153.72 1081.5,-143.72 1074.5,-143.72"/>
</g>
<!-- HeaderComponent  -->
<g id="node15" class="node">
<title>HeaderComponent </title>
<polygon fill="#fb8072" stroke="black" points="999.74,-190 874.26,-190 874.26,-154 999.74,-154 999.74,-190"/>
<text text-anchor="middle" x="937" y="-167.8" font-family="Times,serif" font-size="14.00">HeaderComponent </text>
</g>
<!-- CoreModule&#45;&gt;HeaderComponent  -->
<g id="edge13" class="edge">
<title>CoreModule&#45;&gt;HeaderComponent </title>
<path fill="none" stroke="black" stroke-dasharray="5,2" d="M387.6,-104C524.55,-104 937,-104 937,-104 937,-104 937,-143.78 937,-143.78"/>
<polygon fill="black" stroke="black" points="933.5,-143.78 937,-153.78 940.5,-143.78 933.5,-143.78"/>
</g>
<!-- IconsModule  -->
<g id="node16" class="node">
<title>IconsModule </title>
<polygon fill="#fb8072" stroke="black" points="856.87,-190 763.13,-190 763.13,-154 856.87,-154 856.87,-190"/>
<text text-anchor="middle" x="810" y="-167.8" font-family="Times,serif" font-size="14.00">IconsModule </text>
</g>
<!-- CoreModule&#45;&gt;IconsModule  -->
<g id="edge14" class="edge">
<title>CoreModule&#45;&gt;IconsModule </title>
<path fill="none" stroke="black" stroke-dasharray="5,2" d="M387.42,-108C503.11,-108 810,-108 810,-108 810,-108 810,-143.83 810,-143.83"/>
<polygon fill="black" stroke="black" points="806.5,-143.83 810,-153.83 813.5,-143.83 806.5,-143.83"/>
</g>
<!-- LoginModule  -->
<g id="node17" class="node">
<title>LoginModule </title>
<polygon fill="#fb8072" stroke="black" points="745.49,-190 648.51,-190 648.51,-154 745.49,-154 745.49,-190"/>
<text text-anchor="middle" x="697" y="-167.8" font-family="Times,serif" font-size="14.00">LoginModule </text>
</g>
<!-- CoreModule&#45;&gt;LoginModule  -->
<g id="edge15" class="edge">
<title>CoreModule&#45;&gt;LoginModule </title>
<path fill="none" stroke="black" stroke-dasharray="5,2" d="M387.28,-112C481.55,-112 697,-112 697,-112 697,-112 697,-144 697,-144"/>
<polygon fill="black" stroke="black" points="693.5,-144 697,-154 700.5,-144 693.5,-144"/>
</g>
<!-- NavComponent  -->
<g id="node18" class="node">
<title>NavComponent </title>
<polygon fill="#fb8072" stroke="black" points="631.15,-190 522.85,-190 522.85,-154 631.15,-154 631.15,-190"/>
<text text-anchor="middle" x="577" y="-167.8" font-family="Times,serif" font-size="14.00">NavComponent </text>
</g>
<!-- CoreModule&#45;&gt;NavComponent  -->
<g id="edge16" class="edge">
<title>CoreModule&#45;&gt;NavComponent </title>
<path fill="none" stroke="black" stroke-dasharray="5,2" d="M387.28,-115C454.66,-115 577,-115 577,-115 577,-115 577,-143.96 577,-143.96"/>
<polygon fill="black" stroke="black" points="573.5,-143.96 577,-153.96 580.5,-143.96 573.5,-143.96"/>
</g>
<!-- UiModule  -->
<g id="node19" class="node">
<title>UiModule </title>
<polygon fill="#fb8072" stroke="black" points="504.55,-190 427.45,-190 427.45,-154 504.55,-154 504.55,-190"/>
<text text-anchor="middle" x="466" y="-167.8" font-family="Times,serif" font-size="14.00">UiModule </text>
</g>
<!-- CoreModule&#45;&gt;UiModule  -->
<g id="edge17" class="edge">
<title>CoreModule&#45;&gt;UiModule </title>
<path fill="none" stroke="black" stroke-dasharray="5,2" d="M387.36,-119C422.42,-119 466,-119 466,-119 466,-119 466,-143.76 466,-143.76"/>
<polygon fill="black" stroke="black" points="462.5,-143.76 466,-153.76 469.5,-143.76 462.5,-143.76"/>
</g>
<!-- PageAddClientComponent -->
<g id="node6" class="node">
<title>PageAddClientComponent</title>
<polygon fill="#ffffb3" stroke="black" points="2289.37,-122 2122.63,-122 2122.63,-86 2289.37,-86 2289.37,-122"/>
<text text-anchor="middle" x="2206" y="-99.8" font-family="Times,serif" font-size="14.00">PageAddClientComponent</text>
</g>
<!-- ClientsModule -->
<g id="node9" class="node">
<title>ClientsModule</title>
<polygon fill="#8dd3c7" stroke="black" points="1978.72,-190 1975.72,-194 1954.72,-194 1951.72,-190 1879.28,-190 1879.28,-154 1978.72,-154 1978.72,-190"/>
<text text-anchor="middle" x="1929" y="-167.8" font-family="Times,serif" font-size="14.00">ClientsModule</text>
</g>
<!-- PageAddClientComponent&#45;&gt;ClientsModule -->
<g id="edge5" class="edge">
<title>PageAddClientComponent&#45;&gt;ClientsModule</title>
<path fill="none" stroke="black" d="M2206,-122.02C2206,-139.37 2206,-163 2206,-163 2206,-163 1988.84,-163 1988.84,-163"/>
<polygon fill="black" stroke="black" points="1988.84,-159.5 1978.84,-163 1988.84,-166.5 1988.84,-159.5"/>
</g>
<!-- PageEditClientComponent -->
<g id="node7" class="node">
<title>PageEditClientComponent</title>
<polygon fill="#ffffb3" stroke="black" points="2105.1,-122 1938.9,-122 1938.9,-86 2105.1,-86 2105.1,-122"/>
<text text-anchor="middle" x="2022" y="-99.8" font-family="Times,serif" font-size="14.00">PageEditClientComponent</text>
</g>
<!-- PageEditClientComponent&#45;&gt;ClientsModule -->
<g id="edge6" class="edge">
<title>PageEditClientComponent&#45;&gt;ClientsModule</title>
<path fill="none" stroke="black" d="M1958.78,-122.22C1958.78,-122.22 1958.78,-143.73 1958.78,-143.73"/>
<polygon fill="black" stroke="black" points="1955.28,-143.73 1958.78,-153.73 1962.28,-143.73 1955.28,-143.73"/>
</g>
<!-- PageListClientsComponent -->
<g id="node8" class="node">
<title>PageListClientsComponent</title>
<polygon fill="#ffffb3" stroke="black" points="1920.99,-122 1751.01,-122 1751.01,-86 1920.99,-86 1920.99,-122"/>
<text text-anchor="middle" x="1836" y="-99.8" font-family="Times,serif" font-size="14.00">PageListClientsComponent</text>
</g>
<!-- PageListClientsComponent&#45;&gt;ClientsModule -->
<g id="edge7" class="edge">
<title>PageListClientsComponent&#45;&gt;ClientsModule</title>
<path fill="none" stroke="black" d="M1900.19,-122.22C1900.19,-122.22 1900.19,-143.73 1900.19,-143.73"/>
<polygon fill="black" stroke="black" points="1896.69,-143.73 1900.19,-153.73 1903.69,-143.73 1896.69,-143.73"/>
</g>
<!-- ClientsRoutingModule -->
<g id="node10" class="node">
<title>ClientsRoutingModule</title>
<polygon fill="#8dd3c7" stroke="black" points="1727.34,-122 1724.34,-126 1703.34,-126 1700.34,-122 1582.66,-122 1582.66,-86 1727.34,-86 1727.34,-122"/>
<text text-anchor="middle" x="1655" y="-99.8" font-family="Times,serif" font-size="14.00">ClientsRoutingModule</text>
</g>
<!-- ClientsRoutingModule&#45;&gt;ClientsModule -->
<g id="edge8" class="edge">
<title>ClientsRoutingModule&#45;&gt;ClientsModule</title>
<path fill="none" stroke="black" d="M1655,-122.22C1655,-142.37 1655,-172 1655,-172 1655,-172 1869.38,-172 1869.38,-172"/>
<polygon fill="black" stroke="black" points="1869.38,-175.5 1879.38,-172 1869.38,-168.5 1869.38,-175.5"/>
</g>
<!-- FooterComponent -->
<g id="node11" class="node">
<title>FooterComponent</title>
<polygon fill="#ffffb3" stroke="black" points="1542.88,-190 1425.12,-190 1425.12,-154 1542.88,-154 1542.88,-190"/>
<text text-anchor="middle" x="1484" y="-167.8" font-family="Times,serif" font-size="14.00">FooterComponent</text>
</g>
<!-- FooterComponent&#45;&gt;CoreModule -->
<g id="edge9" class="edge">
<title>FooterComponent&#45;&gt;CoreModule</title>
<path fill="none" stroke="black" d="M1484,-153.8C1484,-129.64 1484,-90 1484,-90 1484,-90 397.3,-90 397.3,-90"/>
<polygon fill="black" stroke="black" points="397.3,-86.5 387.3,-90 397.3,-93.5 397.3,-86.5"/>
</g>
<!-- HeaderComponent -->
<g id="node12" class="node">
<title>HeaderComponent</title>
<polygon fill="#ffffb3" stroke="black" points="1406.74,-190 1285.26,-190 1285.26,-154 1406.74,-154 1406.74,-190"/>
<text text-anchor="middle" x="1346" y="-167.8" font-family="Times,serif" font-size="14.00">HeaderComponent</text>
</g>
<!-- HeaderComponent&#45;&gt;CoreModule -->
<g id="edge10" class="edge">
<title>HeaderComponent&#45;&gt;CoreModule</title>
<path fill="none" stroke="black" d="M1346,-153.91C1346,-130.87 1346,-94 1346,-94 1346,-94 397.38,-94 397.38,-94"/>
<polygon fill="black" stroke="black" points="397.38,-90.5 387.38,-94 397.38,-97.5 397.38,-90.5"/>
</g>
<!-- NavComponent -->
<g id="node13" class="node">
<title>NavComponent</title>
<polygon fill="#ffffb3" stroke="black" points="1267.15,-190 1162.85,-190 1162.85,-154 1267.15,-154 1267.15,-190"/>
<text text-anchor="middle" x="1215" y="-167.8" font-family="Times,serif" font-size="14.00">NavComponent</text>
</g>
<!-- NavComponent&#45;&gt;CoreModule -->
<g id="edge11" class="edge">
<title>NavComponent&#45;&gt;CoreModule</title>
<path fill="none" stroke="black" d="M1215,-153.84C1215,-131.65 1215,-97 1215,-97 1215,-97 397.49,-97 397.49,-97"/>
<polygon fill="black" stroke="black" points="397.49,-93.5 387.49,-97 397.49,-100.5 397.49,-93.5"/>
</g>
<!-- IconCrossComponent -->
<g id="node20" class="node">
<title>IconCrossComponent</title>
<polygon fill="#ffffb3" stroke="black" points="2932.09,-122 2793.91,-122 2793.91,-86 2932.09,-86 2932.09,-122"/>
<text text-anchor="middle" x="2863" y="-99.8" font-family="Times,serif" font-size="14.00">IconCrossComponent</text>
</g>
<!-- IconsModule -->
<g id="node24" class="node">
<title>IconsModule</title>
<polygon fill="#8dd3c7" stroke="black" points="2597.87,-190 2594.87,-194 2573.87,-194 2570.87,-190 2508.13,-190 2508.13,-154 2597.87,-154 2597.87,-190"/>
<text text-anchor="middle" x="2553" y="-167.8" font-family="Times,serif" font-size="14.00">IconsModule</text>
</g>
<!-- IconCrossComponent&#45;&gt;IconsModule -->
<g id="edge18" class="edge">
<title>IconCrossComponent&#45;&gt;IconsModule</title>
<path fill="none" stroke="black" d="M2886.77,-122.28C2886.77,-143.32 2886.77,-175 2886.77,-175 2886.77,-175 2608.01,-175 2608.01,-175"/>
<polygon fill="black" stroke="black" points="2608.01,-171.5 2598.01,-175 2608.01,-178.5 2608.01,-171.5"/>
</g>
<!-- IconDeleteComponent -->
<g id="node21" class="node">
<title>IconDeleteComponent</title>
<polygon fill="#ffffb3" stroke="black" points="2776.24,-122 2633.76,-122 2633.76,-86 2776.24,-86 2776.24,-122"/>
<text text-anchor="middle" x="2705" y="-99.8" font-family="Times,serif" font-size="14.00">IconDeleteComponent</text>
</g>
<!-- IconDeleteComponent&#45;&gt;IconsModule -->
<g id="edge19" class="edge">
<title>IconDeleteComponent&#45;&gt;IconsModule</title>
<path fill="none" stroke="black" d="M2728.79,-122.03C2728.79,-141.58 2728.79,-170 2728.79,-170 2728.79,-170 2608.27,-170 2608.27,-170"/>
<polygon fill="black" stroke="black" points="2608.27,-166.5 2598.27,-170 2608.27,-173.5 2608.27,-166.5"/>
</g>
<!-- IconEditComponent -->
<g id="node22" class="node">
<title>IconEditComponent</title>
<polygon fill="#ffffb3" stroke="black" points="2615.54,-122 2486.46,-122 2486.46,-86 2615.54,-86 2615.54,-122"/>
<text text-anchor="middle" x="2551" y="-99.8" font-family="Times,serif" font-size="14.00">IconEditComponent</text>
</g>
<!-- IconEditComponent&#45;&gt;IconsModule -->
<g id="edge20" class="edge">
<title>IconEditComponent&#45;&gt;IconsModule</title>
<path fill="none" stroke="black" d="M2553,-122.22C2553,-122.22 2553,-143.73 2553,-143.73"/>
<polygon fill="black" stroke="black" points="2549.5,-143.73 2553,-153.73 2556.5,-143.73 2549.5,-143.73"/>
</g>
<!-- IconNavComponent -->
<g id="node23" class="node">
<title>IconNavComponent</title>
<polygon fill="#ffffb3" stroke="black" points="2467.53,-122 2338.47,-122 2338.47,-86 2467.53,-86 2467.53,-122"/>
<text text-anchor="middle" x="2403" y="-99.8" font-family="Times,serif" font-size="14.00">IconNavComponent</text>
</g>
<!-- IconNavComponent&#45;&gt;IconsModule -->
<g id="edge21" class="edge">
<title>IconNavComponent&#45;&gt;IconsModule</title>
<path fill="none" stroke="black" d="M2421.09,-122.22C2421.09,-142.37 2421.09,-172 2421.09,-172 2421.09,-172 2497.97,-172 2497.97,-172"/>
<polygon fill="black" stroke="black" points="2497.97,-175.5 2507.97,-172 2497.97,-168.5 2497.97,-175.5"/>
</g>
<!-- IconCrossComponent  -->
<g id="node25" class="node">
<title>IconCrossComponent </title>
<polygon fill="#fb8072" stroke="black" points="2937.59,-258 2796.41,-258 2796.41,-222 2937.59,-222 2937.59,-258"/>
<text text-anchor="middle" x="2867" y="-235.8" font-family="Times,serif" font-size="14.00">IconCrossComponent </text>
</g>
<!-- IconsModule&#45;&gt;IconCrossComponent  -->
<g id="edge22" class="edge">
<title>IconsModule&#45;&gt;IconCrossComponent </title>
<path fill="none" stroke="black" stroke-dasharray="5,2" d="M2598.08,-180C2679.21,-180 2841.48,-180 2841.48,-180 2841.48,-180 2841.48,-212 2841.48,-212"/>
<polygon fill="black" stroke="black" points="2837.98,-212 2841.48,-222 2844.98,-212 2837.98,-212"/>
</g>
<!-- IconDeleteComponent  -->
<g id="node26" class="node">
<title>IconDeleteComponent </title>
<polygon fill="#fb8072" stroke="black" points="2778.24,-258 2631.76,-258 2631.76,-222 2778.24,-222 2778.24,-258"/>
<text text-anchor="middle" x="2705" y="-235.8" font-family="Times,serif" font-size="14.00">IconDeleteComponent </text>
</g>
<!-- IconsModule&#45;&gt;IconDeleteComponent  -->
<g id="edge23" class="edge">
<title>IconsModule&#45;&gt;IconDeleteComponent </title>
<path fill="none" stroke="black" stroke-dasharray="5,2" d="M2598.2,-185C2635.11,-185 2681.21,-185 2681.21,-185 2681.21,-185 2681.21,-211.99 2681.21,-211.99"/>
<polygon fill="black" stroke="black" points="2677.71,-211.99 2681.21,-221.99 2684.71,-211.99 2677.71,-211.99"/>
</g>
<!-- IconEditComponent  -->
<g id="node27" class="node">
<title>IconEditComponent </title>
<polygon fill="#fb8072" stroke="black" points="2613.54,-258 2480.46,-258 2480.46,-222 2613.54,-222 2613.54,-258"/>
<text text-anchor="middle" x="2547" y="-235.8" font-family="Times,serif" font-size="14.00">IconEditComponent </text>
</g>
<!-- IconsModule&#45;&gt;IconEditComponent  -->
<g id="edge24" class="edge">
<title>IconsModule&#45;&gt;IconEditComponent </title>
<path fill="none" stroke="black" stroke-dasharray="5,2" d="M2553,-190.22C2553,-190.22 2553,-211.73 2553,-211.73"/>
<polygon fill="black" stroke="black" points="2549.5,-211.73 2553,-221.73 2556.5,-211.73 2549.5,-211.73"/>
</g>
<!-- IconNavComponent  -->
<g id="node28" class="node">
<title>IconNavComponent </title>
<polygon fill="#fb8072" stroke="black" points="2462.53,-258 2329.47,-258 2329.47,-222 2462.53,-222 2462.53,-258"/>
<text text-anchor="middle" x="2396" y="-235.8" font-family="Times,serif" font-size="14.00">IconNavComponent </text>
</g>
<!-- IconsModule&#45;&gt;IconNavComponent  -->
<g id="edge25" class="edge">
<title>IconsModule&#45;&gt;IconNavComponent </title>
<path fill="none" stroke="black" stroke-dasharray="5,2" d="M2507.91,-181C2456.55,-181 2379.66,-181 2379.66,-181 2379.66,-181 2379.66,-211.98 2379.66,-211.98"/>
<polygon fill="black" stroke="black" points="2376.16,-211.98 2379.66,-221.98 2383.16,-211.98 2376.16,-211.98"/>
</g>
<!-- PageForgotPasswordComponent -->
<g id="node29" class="node">
<title>PageForgotPasswordComponent</title>
<polygon fill="#ffffb3" stroke="black" points="3884.53,-122 3685.47,-122 3685.47,-86 3884.53,-86 3884.53,-122"/>
<text text-anchor="middle" x="3785" y="-99.8" font-family="Times,serif" font-size="14.00">PageForgotPasswordComponent</text>
</g>
<!-- LoginModule -->
<g id="node33" class="node">
<title>LoginModule</title>
<polygon fill="#8dd3c7" stroke="black" points="3429.49,-190 3426.49,-194 3405.49,-194 3402.49,-190 3336.51,-190 3336.51,-154 3429.49,-154 3429.49,-190"/>
<text text-anchor="middle" x="3383" y="-167.8" font-family="Times,serif" font-size="14.00">LoginModule</text>
</g>
<!-- PageForgotPasswordComponent&#45;&gt;LoginModule -->
<g id="edge26" class="edge">
<title>PageForgotPasswordComponent&#45;&gt;LoginModule</title>
<path fill="none" stroke="black" d="M3785,-122.25C3785,-145.02 3785,-181 3785,-181 3785,-181 3439.51,-181 3439.51,-181"/>
<polygon fill="black" stroke="black" points="3439.51,-177.5 3429.51,-181 3439.51,-184.5 3439.51,-177.5"/>
</g>
<!-- PageResetPasswordComponent -->
<g id="node30" class="node">
<title>PageResetPasswordComponent</title>
<polygon fill="#ffffb3" stroke="black" points="3667.8,-122 3474.2,-122 3474.2,-86 3667.8,-86 3667.8,-122"/>
<text text-anchor="middle" x="3571" y="-99.8" font-family="Times,serif" font-size="14.00">PageResetPasswordComponent</text>
</g>
<!-- PageResetPasswordComponent&#45;&gt;LoginModule -->
<g id="edge27" class="edge">
<title>PageResetPasswordComponent&#45;&gt;LoginModule</title>
<path fill="none" stroke="black" d="M3571,-122.22C3571,-142.37 3571,-172 3571,-172 3571,-172 3439.96,-172 3439.96,-172"/>
<polygon fill="black" stroke="black" points="3439.96,-168.5 3429.96,-172 3439.96,-175.5 3439.96,-168.5"/>
</g>
<!-- PageSignInComponent -->
<g id="node31" class="node">
<title>PageSignInComponent</title>
<polygon fill="#ffffb3" stroke="black" points="3455.88,-122 3310.12,-122 3310.12,-86 3455.88,-86 3455.88,-122"/>
<text text-anchor="middle" x="3383" y="-99.8" font-family="Times,serif" font-size="14.00">PageSignInComponent</text>
</g>
<!-- PageSignInComponent&#45;&gt;LoginModule -->
<g id="edge28" class="edge">
<title>PageSignInComponent&#45;&gt;LoginModule</title>
<path fill="none" stroke="black" d="M3383,-122.22C3383,-122.22 3383,-143.73 3383,-143.73"/>
<polygon fill="black" stroke="black" points="3379.5,-143.73 3383,-153.73 3386.5,-143.73 3379.5,-143.73"/>
</g>
<!-- PageSignUpComponent -->
<g id="node32" class="node">
<title>PageSignUpComponent</title>
<polygon fill="#ffffb3" stroke="black" points="3291.82,-122 3140.18,-122 3140.18,-86 3291.82,-86 3291.82,-122"/>
<text text-anchor="middle" x="3216" y="-99.8" font-family="Times,serif" font-size="14.00">PageSignUpComponent</text>
</g>
<!-- PageSignUpComponent&#45;&gt;LoginModule -->
<g id="edge29" class="edge">
<title>PageSignUpComponent&#45;&gt;LoginModule</title>
<path fill="none" stroke="black" d="M3216,-122.03C3216,-138.4 3216,-160 3216,-160 3216,-160 3326.48,-160 3326.48,-160"/>
<polygon fill="black" stroke="black" points="3326.48,-163.5 3336.48,-160 3326.48,-156.5 3326.48,-163.5"/>
</g>
<!-- LoginRoutingModule -->
<g id="node34" class="node">
<title>LoginRoutingModule</title>
<polygon fill="#8dd3c7" stroke="black" points="3116.11,-122 3113.11,-126 3092.11,-126 3089.11,-122 2977.89,-122 2977.89,-86 3116.11,-86 3116.11,-122"/>
<text text-anchor="middle" x="3047" y="-99.8" font-family="Times,serif" font-size="14.00">LoginRoutingModule</text>
</g>
<!-- LoginRoutingModule&#45;&gt;LoginModule -->
<g id="edge30" class="edge">
<title>LoginRoutingModule&#45;&gt;LoginModule</title>
<path fill="none" stroke="black" d="M3047,-122.3C3047,-140.27 3047,-165 3047,-165 3047,-165 3326.28,-165 3326.28,-165"/>
<polygon fill="black" stroke="black" points="3326.28,-168.5 3336.28,-165 3326.28,-161.5 3326.28,-168.5"/>
</g>
<!-- PageAddOrderComponent -->
<g id="node35" class="node">
<title>PageAddOrderComponent</title>
<polygon fill="#ffffb3" stroke="black" points="4624.79,-122 4459.21,-122 4459.21,-86 4624.79,-86 4624.79,-122"/>
<text text-anchor="middle" x="4542" y="-99.8" font-family="Times,serif" font-size="14.00">PageAddOrderComponent</text>
</g>
<!-- OrdersModule -->
<g id="node38" class="node">
<title>OrdersModule</title>
<polygon fill="#8dd3c7" stroke="black" points="4315.64,-190 4312.64,-194 4291.64,-194 4288.64,-190 4218.36,-190 4218.36,-154 4315.64,-154 4315.64,-190"/>
<text text-anchor="middle" x="4267" y="-167.8" font-family="Times,serif" font-size="14.00">OrdersModule</text>
</g>
<!-- PageAddOrderComponent&#45;&gt;OrdersModule -->
<g id="edge31" class="edge">
<title>PageAddOrderComponent&#45;&gt;OrdersModule</title>
<path fill="none" stroke="black" d="M4542,-122.22C4542,-142.37 4542,-172 4542,-172 4542,-172 4325.85,-172 4325.85,-172"/>
<polygon fill="black" stroke="black" points="4325.85,-168.5 4315.85,-172 4325.85,-175.5 4325.85,-168.5"/>
</g>
<!-- PageEditOrderComponent -->
<g id="node36" class="node">
<title>PageEditOrderComponent</title>
<polygon fill="#ffffb3" stroke="black" points="4441.02,-122 4276.98,-122 4276.98,-86 4441.02,-86 4441.02,-122"/>
<text text-anchor="middle" x="4359" y="-99.8" font-family="Times,serif" font-size="14.00">PageEditOrderComponent</text>
</g>
<!-- PageEditOrderComponent&#45;&gt;OrdersModule -->
<g id="edge32" class="edge">
<title>PageEditOrderComponent&#45;&gt;OrdersModule</title>
<path fill="none" stroke="black" d="M4296.28,-122.22C4296.28,-122.22 4296.28,-143.73 4296.28,-143.73"/>
<polygon fill="black" stroke="black" points="4292.78,-143.73 4296.28,-153.73 4299.78,-143.73 4292.78,-143.73"/>
</g>
<!-- PageListOrdersComponent -->
<g id="node37" class="node">
<title>PageListOrdersComponent</title>
<polygon fill="#ffffb3" stroke="black" points="4259.41,-122 4090.59,-122 4090.59,-86 4259.41,-86 4259.41,-122"/>
<text text-anchor="middle" x="4175" y="-99.8" font-family="Times,serif" font-size="14.00">PageListOrdersComponent</text>
</g>
<!-- PageListOrdersComponent&#45;&gt;OrdersModule -->
<g id="edge33" class="edge">
<title>PageListOrdersComponent&#45;&gt;OrdersModule</title>
<path fill="none" stroke="black" d="M4238.69,-122.22C4238.69,-122.22 4238.69,-143.73 4238.69,-143.73"/>
<polygon fill="black" stroke="black" points="4235.19,-143.73 4238.69,-153.73 4242.19,-143.73 4235.19,-143.73"/>
</g>
<!-- OrdersRoutingModule -->
<g id="node39" class="node">
<title>OrdersRoutingModule</title>
<polygon fill="#8dd3c7" stroke="black" points="4067.25,-122 4064.25,-126 4043.25,-126 4040.25,-122 3924.75,-122 3924.75,-86 4067.25,-86 4067.25,-122"/>
<text text-anchor="middle" x="3996" y="-99.8" font-family="Times,serif" font-size="14.00">OrdersRoutingModule</text>
</g>
<!-- OrdersRoutingModule&#45;&gt;OrdersModule -->
<g id="edge34" class="edge">
<title>OrdersRoutingModule&#45;&gt;OrdersModule</title>
<path fill="none" stroke="black" d="M3996,-122.02C3996,-139.37 3996,-163 3996,-163 3996,-163 4208.24,-163 4208.24,-163"/>
<polygon fill="black" stroke="black" points="4208.24,-166.5 4218.24,-163 4208.24,-159.5 4208.24,-166.5"/>
</g>
<!-- PageNotFoundComponent -->
<g id="node40" class="node">
<title>PageNotFoundComponent</title>
<polygon fill="#ffffb3" stroke="black" points="5042.82,-122 4877.18,-122 4877.18,-86 5042.82,-86 5042.82,-122"/>
<text text-anchor="middle" x="4960" y="-99.8" font-family="Times,serif" font-size="14.00">PageNotFoundComponent</text>
</g>
<!-- PageNotFoundModule -->
<g id="node41" class="node">
<title>PageNotFoundModule</title>
<polygon fill="#8dd3c7" stroke="black" points="4930.54,-190 4927.54,-194 4906.54,-194 4903.54,-190 4787.46,-190 4787.46,-154 4930.54,-154 4930.54,-190"/>
<text text-anchor="middle" x="4859" y="-167.8" font-family="Times,serif" font-size="14.00">PageNotFoundModule</text>
</g>
<!-- PageNotFoundComponent&#45;&gt;PageNotFoundModule -->
<g id="edge35" class="edge">
<title>PageNotFoundComponent&#45;&gt;PageNotFoundModule</title>
<path fill="none" stroke="black" d="M4904.05,-122.22C4904.05,-122.22 4904.05,-143.73 4904.05,-143.73"/>
<polygon fill="black" stroke="black" points="4900.55,-143.73 4904.05,-153.73 4907.55,-143.73 4900.55,-143.73"/>
</g>
<!-- PageNotFoundRoutingModule -->
<g id="node42" class="node">
<title>PageNotFoundRoutingModule</title>
<polygon fill="#8dd3c7" stroke="black" points="4853.16,-122 4850.16,-126 4829.16,-126 4826.16,-122 4664.84,-122 4664.84,-86 4853.16,-86 4853.16,-122"/>
<text text-anchor="middle" x="4759" y="-99.8" font-family="Times,serif" font-size="14.00">PageNotFoundRoutingModule</text>
</g>
<!-- PageNotFoundRoutingModule&#45;&gt;PageNotFoundModule -->
<g id="edge36" class="edge">
<title>PageNotFoundRoutingModule&#45;&gt;PageNotFoundModule</title>
<path fill="none" stroke="black" d="M4820.28,-122.22C4820.28,-122.22 4820.28,-143.73 4820.28,-143.73"/>
<polygon fill="black" stroke="black" points="4816.78,-143.73 4820.28,-153.73 4823.78,-143.73 4816.78,-143.73"/>
</g>
<!-- TemplateContainerComponent -->
<g id="node43" class="node">
<title>TemplateContainerComponent</title>
<polygon fill="#ffffb3" stroke="black" points="5482.91,-122 5293.09,-122 5293.09,-86 5482.91,-86 5482.91,-122"/>
<text text-anchor="middle" x="5388" y="-99.8" font-family="Times,serif" font-size="14.00">TemplateContainerComponent</text>
</g>
<!-- TemplatesModule -->
<g id="node45" class="node">
<title>TemplatesModule</title>
<polygon fill="#8dd3c7" stroke="black" points="5240.86,-190 5237.86,-194 5216.86,-194 5213.86,-190 5123.14,-190 5123.14,-154 5240.86,-154 5240.86,-190"/>
<text text-anchor="middle" x="5182" y="-167.8" font-family="Times,serif" font-size="14.00">TemplatesModule</text>
</g>
<!-- TemplateContainerComponent&#45;&gt;TemplatesModule -->
<g id="edge37" class="edge">
<title>TemplateContainerComponent&#45;&gt;TemplatesModule</title>
<path fill="none" stroke="black" d="M5419.65,-122.27C5419.65,-140.56 5419.65,-166 5419.65,-166 5419.65,-166 5251.05,-166 5251.05,-166"/>
<polygon fill="black" stroke="black" points="5251.05,-162.5 5241.05,-166 5251.05,-169.5 5251.05,-162.5"/>
</g>
<!-- TemplateFullwidthComponent -->
<g id="node44" class="node">
<title>TemplateFullwidthComponent</title>
<polygon fill="#ffffb3" stroke="black" points="5275.15,-122 5086.85,-122 5086.85,-86 5275.15,-86 5275.15,-122"/>
<text text-anchor="middle" x="5181" y="-99.8" font-family="Times,serif" font-size="14.00">TemplateFullwidthComponent</text>
</g>
<!-- TemplateFullwidthComponent&#45;&gt;TemplatesModule -->
<g id="edge38" class="edge">
<title>TemplateFullwidthComponent&#45;&gt;TemplatesModule</title>
<path fill="none" stroke="black" d="M5182,-122.22C5182,-122.22 5182,-143.73 5182,-143.73"/>
<polygon fill="black" stroke="black" points="5178.5,-143.73 5182,-153.73 5185.5,-143.73 5178.5,-143.73"/>
</g>
<!-- TemplateContainerComponent  -->
<g id="node46" class="node">
<title>TemplateContainerComponent </title>
<polygon fill="#fb8072" stroke="black" points="5486.41,-258 5293.59,-258 5293.59,-222 5486.41,-222 5486.41,-258"/>
<text text-anchor="middle" x="5390" y="-235.8" font-family="Times,serif" font-size="14.00">TemplateContainerComponent </text>
</g>
<!-- TemplatesModule&#45;&gt;TemplateContainerComponent  -->
<g id="edge39" class="edge">
<title>TemplatesModule&#45;&gt;TemplateContainerComponent </title>
<path fill="none" stroke="black" stroke-dasharray="5,2" d="M5241.11,-178C5291.76,-178 5356.6,-178 5356.6,-178 5356.6,-178 5356.6,-211.73 5356.6,-211.73"/>
<polygon fill="black" stroke="black" points="5353.1,-211.73 5356.6,-221.73 5360.1,-211.73 5353.1,-211.73"/>
</g>
<!-- TemplateFullwidthComponent  -->
<g id="node47" class="node">
<title>TemplateFullwidthComponent </title>
<polygon fill="#fb8072" stroke="black" points="5275.15,-258 5082.85,-258 5082.85,-222 5275.15,-222 5275.15,-258"/>
<text text-anchor="middle" x="5179" y="-235.8" font-family="Times,serif" font-size="14.00">TemplateFullwidthComponent </text>
</g>
<!-- TemplatesModule&#45;&gt;TemplateFullwidthComponent  -->
<g id="edge40" class="edge">
<title>TemplatesModule&#45;&gt;TemplateFullwidthComponent </title>
<path fill="none" stroke="black" stroke-dasharray="5,2" d="M5182,-190.22C5182,-190.22 5182,-211.73 5182,-211.73"/>
<polygon fill="black" stroke="black" points="5178.5,-211.73 5182,-221.73 5185.5,-211.73 5178.5,-211.73"/>
</g>
<!-- Ui2Component -->
<g id="node48" class="node">
<title>Ui2Component</title>
<polygon fill="#ffffb3" stroke="black" points="5745.33,-122 5642.67,-122 5642.67,-86 5745.33,-86 5745.33,-122"/>
<text text-anchor="middle" x="5694" y="-99.8" font-family="Times,serif" font-size="14.00">Ui2Component</text>
</g>
<!-- UiModule -->
<g id="node50" class="node">
<title>UiModule</title>
<polygon fill="#8dd3c7" stroke="black" points="5613.55,-190 5610.55,-194 5589.55,-194 5586.55,-190 5540.45,-190 5540.45,-154 5613.55,-154 5613.55,-190"/>
<text text-anchor="middle" x="5577" y="-167.8" font-family="Times,serif" font-size="14.00">UiModule</text>
</g>
<!-- Ui2Component&#45;&gt;UiModule -->
<g id="edge41" class="edge">
<title>Ui2Component&#45;&gt;UiModule</title>
<path fill="none" stroke="black" d="M5711.05,-122.27C5711.05,-140.56 5711.05,-166 5711.05,-166 5711.05,-166 5623.63,-166 5623.63,-166"/>
<polygon fill="black" stroke="black" points="5623.63,-162.5 5613.63,-166 5623.63,-169.5 5623.63,-162.5"/>
</g>
<!-- UiComponent -->
<g id="node49" class="node">
<title>UiComponent</title>
<polygon fill="#ffffb3" stroke="black" points="5624.83,-122 5529.17,-122 5529.17,-86 5624.83,-86 5624.83,-122"/>
<text text-anchor="middle" x="5577" y="-99.8" font-family="Times,serif" font-size="14.00">UiComponent</text>
</g>
<!-- UiComponent&#45;&gt;UiModule -->
<g id="edge42" class="edge">
<title>UiComponent&#45;&gt;UiModule</title>
<path fill="none" stroke="black" d="M5577,-122.22C5577,-122.22 5577,-143.73 5577,-143.73"/>
<polygon fill="black" stroke="black" points="5573.5,-143.73 5577,-153.73 5580.5,-143.73 5573.5,-143.73"/>
</g>
<!-- Ui2Component  -->
<g id="node51" class="node">
<title>Ui2Component </title>
<polygon fill="#fb8072" stroke="black" points="5747.83,-258 5642.17,-258 5642.17,-222 5747.83,-222 5747.83,-258"/>
<text text-anchor="middle" x="5695" y="-235.8" font-family="Times,serif" font-size="14.00">Ui2Component </text>
</g>
<!-- UiModule&#45;&gt;Ui2Component  -->
<g id="edge43" class="edge">
<title>UiModule&#45;&gt;Ui2Component </title>
<path fill="none" stroke="black" stroke-dasharray="5,2" d="M5613.65,-178C5642.17,-178 5676.95,-178 5676.95,-178 5676.95,-178 5676.95,-211.73 5676.95,-211.73"/>
<polygon fill="black" stroke="black" points="5673.45,-211.73 5676.95,-221.73 5680.45,-211.73 5673.45,-211.73"/>
</g>
<!-- UiComponent  -->
<g id="node52" class="node">
<title>UiComponent </title>
<polygon fill="#fb8072" stroke="black" points="5624.33,-258 5525.67,-258 5525.67,-222 5624.33,-222 5624.33,-258"/>
<text text-anchor="middle" x="5575" y="-235.8" font-family="Times,serif" font-size="14.00">UiComponent </text>
</g>
<!-- UiModule&#45;&gt;UiComponent  -->
<g id="edge44" class="edge">
<title>UiModule&#45;&gt;UiComponent </title>
<path fill="none" stroke="black" stroke-dasharray="5,2" d="M5577,-190.22C5577,-190.22 5577,-211.73 5577,-211.73"/>
<polygon fill="black" stroke="black" points="5573.5,-211.73 5577,-221.73 5580.5,-211.73 5573.5,-211.73"/>
</g>
</g>
</svg>
